<svg version="1" xmlns="http://www.w3.org/2000/svg" width="682.667" height="682.667" viewBox="0 0 512.000000 512.000000"><path d="M0 256v256h512V0H0v256zm123.5-138.9c13.4 11.6 29.4 20.8 46.4 26.8 10.7 3.7 14.4 5.9 23.8 13.9 18.6 15.8 30.9 22.3 38.5 20.2 4.5-1.3 13-9 17.9-16.2 2.5-3.6 5.4-6.5 7.5-7.6 3.3-1.5 3.9-1.5 8 0l4.6 1.6 13.1-4.4c7.3-2.5 14.5-4.3 16.1-4.2 4.1.4 5.3 4 2.3 7.2-2.5 2.8-31.1 21.3-39.6 25.5-5.5 2.9-13 9.5-11.9 10.7 1.5 1.5 17.6 3.3 29.4 3.4 13 0 13.1 0 17.5 3.1 21.7 15.1 30.9 19.8 44.9 23 2.4.5 5 1.5 5.7 2.1 1.8 1.4 1.6 6.3-.2 7.8-1.3 1.1-1.1 1.5 1 3.2 2.4 1.9 3.2 5.2 1.7 7.4-1.1 1.7-4.8 3.4-7.5 3.4-2.1 0-2.3.4-1.9 2.5.6 3.2-2.2 6.5-5.5 6.5-1.4 0-2.3.6-2.3 1.5 0 2.4-3.8 5.5-6.8 5.5-1.5 0-3.3.5-4 1.2-.6.6-4 1.2-7.4 1.4-4.8.2-7.1-.2-9.6-1.7-1.8-1-4.1-1.9-5-1.9-2.6-.1-4.6-2-8.1-7.7-4.5-7.2-7.8-8.4-27.2-9.4-13.9-.7-26.7-2.8-40.5-6.5-1.9-.5-2.2 0-2.8 3.8-.8 5.2-3.6 10.1-7.1 12.4-2.4 1.6-3.5 1.6-12.4.4l-9.9-1.3-10.6 9.4c-5.9 5.2-11.7 9.8-13.1 10.3-3.9 1.5-5.5-.7-5.5-7.6v-6l7-7.6c3.8-4.3 7-8.2 7-8.8 0-.6-1.8-3.5-4-6.5-5.5-7.3-5.3-11 .8-15.6l4.2-3.2-5.9-4.1c-7.4-4.9-15.9-12-27.1-22.4-4.7-4.3-10.8-9.4-13.7-11.3-4.7-3.2-5.7-3.5-9.7-2.9-4.7.7-11.6-1.3-11.6-3.4 0-.6-2-1.9-4.5-3-3.2-1.4-4.6-2.6-5.1-4.6-.4-1.5-1.6-3.6-2.6-4.6-1.4-1.4-1.8-2.8-1.5-4.7.3-1.5-.1-3.4-.9-4.5-1.9-2.7-1.8-5.3.5-7.3 1.8-1.5 1.8-1.8.4-3.9-1.9-2.9-.9-6.2 2.3-7.6 1.8-.8 2.3-1.6 1.7-2.7-.4-.9-.7-3.6-.7-6.1-.1-4 .2-4.5 2.7-5.4 2-.7 3.4-.7 4.7.2 1.7 1 2 1 2-.3 0-2 3.6-5.5 5.8-5.5.9 0 4.9 2.7 8.7 6.1zM353 202c10.5 4.5 23.2 11.9 34 19.8 9.9 7.2 31 28.7 38.3 38.9 7.7 10.8 15.9 24.5 15.1 25.2-.3.3-1.3-.5-2.2-1.8-13-19.3-35-41.8-51.6-53-12.6-8.3-26.2-15.4-39.1-20.2-4.9-1.8-9.2-3.5-9.5-3.7-.7-.5 4.1-9.2 5.1-9.2.4 0 4.9 1.8 9.9 4zm-201.9 43.7l5.9 5.6-11.3 11.6c-30.5 31.2-46.6 63.5-58.2 116.8-.5 2.2-.9 2.3-11.6 2.3H64.8l.7-4.6c1-7.1 7-28 11-39 8.4-22.9 22.9-48.7 38.5-68.6 7.2-9.1 27.3-29.8 29.1-29.8.6 0 3.7 2.5 7 5.7zm32.8 81.5c2.8 10.1 5.6 20.8 6.3 23.8.6 3 1.4 5.8 1.8 6.3.3.4 1.8-7.5 3.3-17.6 1.5-10 3.2-21.1 3.8-24.5l1.1-6.2h10.4c5.7 0 10.4.3 10.4.7 0 .5-2.7 16.5-6 35.8-3.3 19.2-6 35.3-6 35.7 0 .5-7.1.8-15.9.8h-15.8l-4.6-15.8c-2.6-8.6-5.7-20-7-25.2l-2.4-9.5-.7 5.5c-.5 3-2.1 14.2-3.7 24.7-1.6 10.6-2.9 19.5-2.9 19.8 0 .3-4.8.5-10.6.5h-10.6l.5-2.8c.3-1.5 2.8-17.3 5.7-35.2 2.8-17.9 5.3-33.1 5.6-33.8.2-.9 4.4-1.2 16.2-1.2h16l5.1 18.2zM291 309.9c0 .8 9.5 62.9 10.5 68.8l.6 3.3h-23.9l-.7-7.5-.7-7.6-11.6.3-11.6.3-3 7.2-3 7.3h-11.9c-9.1 0-11.8-.3-11.4-1.3.3-.6 8.3-17.1 17.8-36.5l17.2-35.2h15.9c8.7 0 15.8.4 15.8.9zm63-.4c0 .3-2.5 14.9-5.5 32.6-6 34.9-7.3 38.9-14.6 47.2-5.3 6.1-14.6 10.7-22.1 11-3.1.1-5.9-.1-6.2-.4-.3-.3-1-2.7-1.5-5.3-1-5.2-1.1-5 5.3-6.1 4.9-.8 8.2-4.4 10.1-10.8.8-2.7 3.7-18.3 6.5-34.6s5.2-30.6 5.5-31.9c.5-2.1.9-2.2 11.5-2.2 6.1 0 11 .2 11 .5zm37.8 22.7c-4.5 27.9-4.6 29.8-1.4 33.5 2.3 2.6 2.9 2.8 9.9 2.8 6.1 0 8.1-.4 10.4-2.1 5-3.7 6.1-7.2 9.7-29.4 2-11.8 3.8-23 4.1-24.8l.6-3.2H436c7.2 0 11 .4 11 1.1 0 .6-1.8 11.9-4.1 25.2-4.6 27.7-6.6 33.5-13.7 39.8-7 6.1-15.5 8.4-31.7 8.4-18.7 0-26.6-3.1-30.6-11.9-2.7-6-2.4-12.4 2.3-38.8l4.2-23.8h22.2l-3.8 23.2z"/><path d="M114 117.3c0 2.1 7.4 11.9 11 14.5 1.7 1.3 2.9 2.6 2.6 2.9-.6.7-8-3.5-16.4-9.3-8.3-5.8-9.5-5.8-6.7-.5 2 4 8.3 9.2 16.3 13.6 6.5 3.5 6.6 3.6 2.7 3-2.2-.4-8-2-12.8-3.6-10-3.3-10.8-3.4-10.1-1.5.7 2 9.7 6.6 17.8 9.2l7.1 2.3H119c-3.6 0-9.4-.6-13-1.4-3.6-.7-6.7-1.2-6.9-1-1.9 1.9 11.6 7.5 17.9 7.5 1.6 0 3.2.4 3.5 1 .4.6-3.1 1-9.7 1.1-10.2.1-10.3.1-6.8 1.6 1.9.9 7.1 1.8 11.5 2.1 9.1.6 7.1 1.9-3.2 2.1-11.1.2-8.6 2.9 3.7 4.1l6.5.6-4.4 1.3c-6 1.7-3.5 3.3 3.9 2.5 5.1-.5 5.9-.3 11.2 3.3 3.1 2.1 11.2 8.8 18 15 14.1 12.8 19.2 16.8 29 22.8l7 4.4-6.6 4.3c-4.2 2.7-6.6 5-6.6 6.2 0 2.3 6.9 11.8 8.1 11 1.5-.9 1.1-2.3-1.6-5.8-1.4-1.8-2.5-3.8-2.5-4.4 0-.6 3.6-3.6 8.1-6.8 13.8-9.7 20.5-17.2 22.3-24.9.6-2.6.2-2.3-3 2.2-2 2.9-4.2 5.3-4.8 5.3-1.4 0-11.4-8.7-16.2-14.1-1.8-1.9-6.3-7.5-10.1-12.4-8.3-10.8-10-12.1-19.1-14.5-8.4-2.1-11.9-4.1-13.2-7.5-1.3-3.3-.3-5.5 2.5-5.5 1.2 0 2.8-.7 3.5-1.5 1.6-2 2.8-1.9 7.2.5 2 1 6.7 2.9 10.5 4.1 9.9 3.2 13.2 5.1 23.1 13.3 12.6 10.5 17.8 14 26.8 18.3 10.1 4.8 16.6 5.1 23.5 1.1 5.1-3 17.3-15.5 18.4-18.7.6-1.8 1.2-2 4.8-1.5 2.3.4 4.3.8 4.5.9.1.1-.2 1.4-.9 2.7-.7 1.6-3.4 3.6-7 5.4-8.9 4.2-17.5 13.6-23.2 25.4-4 8.3-5.7 10.7-14.1 18.9-5.6 5.4-9.6 10.2-9.6 11.3 0 1.1.5 1.6 1 1.3 1.6-1 1.2 8.1-.5 12.1-1.5 3.6-1.5 3.6-6.2 3-2.7-.4-6-.9-7.4-1.2-1.8-.3-2.8 0-3.2 1-.7 1.8 3.8 2.9 11.7 3 6.5.1 8.7-2.7 9.5-12.1.5-5.3 1-6.7 2.1-6.5.8.2 5.6 1.4 10.5 2.8 13.8 3.6 25.8 5.4 36.4 5.4 9.9 0 19.7 1.9 23.9 4.6 2 1.3 5.8 6 8.8 11 1.6 2.6 2.8 1.1 1.4-1.6-.6-1.1-1-2.9-.8-3.8.2-1.1 1.2-.2 3.1 3 2.5 4.3 6 7.8 7.9 7.8.4 0-.9-3.1-2.9-7-2-3.8-3.4-7.2-3.2-7.5.3-.3 2.3 2.1 4.5 5.2 3.8 5.5 8.9 10.2 9.9 9.1.3-.2-1.7-3.8-4.3-7.9-7-10.6-7-11.8 0-4.3 6 6.4 10.9 9.9 13 9.2.6-.2-1.2-2.8-3.9-5.8-6-6.6-11.5-14.1-10.8-14.8.2-.3 2.6 1.5 5.2 4 6.2 5.7 13.6 10 16.5 9.6 1.9-.3 1.2-1.2-5.2-6.4-4.1-3.4-9.1-7.9-11-9.9l-3.5-3.8 5 2.8c2.8 1.6 5.5 3.2 6.1 3.7 2.3 1.7 12.9 4.8 16.6 4.8 5.4 0 4.7-1.7-1.9-4.6-7.5-3.3-15.3-7.3-17.8-9.2l-2-1.4 2 .7c7.6 2.6 21.5 3.7 21.5 1.6 0-.3-3.2-1.4-7.2-2.3-9.6-2.4-23.2-9.2-35.3-17.7l-10-7.1H281c-17.7 0-38.5-3.7-38.5-6.8 0-3.1 10.5-12.9 18.6-17.3 8.6-4.7 37.6-23.4 34.9-22.6-.8.3-7 2.4-13.8 4.7-12.2 4.2-12.3 4.2-15.9 2.5-5.1-2.5-7.9-1.2-12.7 5.9-4.5 6.5-15.3 16.2-19.2 17.2-4.9 1.2-12.4-.3-19.7-4-7.1-3.6-11.6-6.8-27.7-19.8-6.6-5.4-10-7.2-17.4-9.8-17.5-6.1-36.7-17.1-48.8-27.9-6-5.4-6.8-5.9-6.8-3.8zm145 83.6c3.6.6 11.8 1.1 18.3 1.1 12.5 0 13.7.3 20 5.3 3.1 2.4 3.7 3.5 3.3 5.3-.4 1.3-.1 3.2.6 4.3 1.5 2.5-.2 4.7-4.4 5.6-2.4.6-3.9.1-7.6-2.6-5.1-3.7-3.7-3.6-26.2-2.9-9.4.3-13.2-.1-20.7-1.9-5.1-1.2-9.5-2.7-9.8-3.1-.3-.5.8-2.8 2.4-5 1.7-2.3 3.5-5.6 4.1-7.5l1.1-3.3 6.2 1.9c3.4 1 9.1 2.3 12.7 2.8z"/><path d="M195.6 222c-4.4 8.2-13 20.3-20.6 28.8-6.8 7.7-8.1 9.7-7.8 12.2l.3 2.9 7-6.1c22-19.1 32.5-29.1 32.5-30.9 0-1-.3-1.9-.6-1.9s-5.2 4.3-10.9 9.5-10.6 9.5-10.8 9.5c-.3 0 2.7-4.7 6.5-10.4 5.7-8.6 6.9-11.1 6.6-13.8l-.3-3.3-1.9 3.5zM266.3 336.8l-6 14.7 6.5.3c3.6.2 7 .1 7.6-.1.8-.3.9-4.2.1-14.5-.5-7.7-1.2-14.3-1.5-14.6-.3-.3-3.3 6.1-6.7 14.2z"/></svg>