<?xml version="1.0" encoding="UTF-8"?>
<svg width="160px" height="136px" viewBox="0 0 160 136" version="1.1" xmlns="http://www.w3.org/2000/svg" xmlns:xlink="http://www.w3.org/1999/xlink">
    <!-- Generator: Sketch 53.2 (72643) - https://sketchapp.com -->
    <title>logo-new-top</title>
    <desc>Created with Sketch.</desc>
    <defs>
        <path d="M25.4351962,14.7080427 C14.5469003,24.2830038 9.07861267,35.8624943 6.4917207,49.933547 L0.395802372,49.933547 C3.12797111,35.1144573 10.3944427,21.4005912 21.9068581,11.474127 L25.4351962,14.7080427 Z M101.975422,23.9013345 L101.536519,24.0324923 C94.8221873,13.6290507 85.8295118,6.59461732 73.9773857,2.82645193 L75.4674601,0.249637131 C87.2717457,4.68233569 96.0642817,12.9264817 101.975422,23.9013345 Z" id="path-1"></path>
        <path d="M11.3749072,25.3117624 C11.1027876,24.9694404 11.5930418,24.7062503 11.5952363,24.6795815 L10.1130622,22.7992149 C9.91336154,22.475255 9.98139144,22.0594846 10.2464886,21.8435113 L10.9935009,21.337242 C12.164493,20.5437369 13.3749864,19.7248746 14.5187666,18.8281921 C16.0917936,17.4860099 17.545439,16.135084 18.1511246,14.575617 C17.7539177,15.164953 17.265858,15.7162532 16.6922123,16.2220853 C16.6386662,16.268865 16.5706363,16.2929106 16.5039231,16.2929106 C16.4446713,16.2929106 16.387175,16.2758601 16.3371401,16.2400102 C15.8578585,15.8946279 15.391305,15.5286974 14.9256293,15.164953 L14.6684324,14.9629699 C12.142109,12.9824861 10.3386582,10.5031653 8.5948981,8.106474 L7.82506293,7.05371356 C6.93540734,5.77623598 5.60641025,5.47675886 4.19972739,5.15979403 C3.33991718,4.9652432 2.44982269,4.76588325 1.6611147,4.32781599 C0.998810665,3.97849888 0.223269757,3.22827591 0.241264764,2.27388386 C0.246531595,1.97877867 0.257943063,1.36670865 0.799987784,1.05892486 C0.932975274,1.0016526 1.0383119,0.979355759 1.14540414,0.979355759 C1.30165347,0.979355759 1.43288534,1.02351224 1.54875563,1.06111083 C1.64004738,1.09258871 1.71817204,1.1179459 1.79278548,1.1179459 C1.90733906,1.10220696 1.95342384,1.03662803 2.04032655,0.888419641 C2.1145011,0.762508093 2.1992093,0.619546023 2.34404716,0.514619733 C2.54199224,0.37122047 2.76539366,0.299083646 3.00854571,0.299083646 C3.44788722,0.299083646 3.87888958,0.535604991 4.25854034,0.744145992 C4.40118368,0.822840709 4.54031581,0.89891227 4.67198659,0.958370501 C5.57963719,1.50967072 6.52986133,1.78510223 7.53538721,2.0753983 C8.77309256,2.43389645 10.0516159,2.80332443 11.2221691,3.69388632 C12.1456202,4.39776685 13.1871361,5.27608733 14.1948565,6.12686467 C14.8979785,6.72188417 15.5782775,7.29635561 16.1765018,7.77377022 C17.3128206,8.68225702 20.6563807,10.8568544 23.1910432,11.4050942 C23.5219758,11.4759195 23.8594919,11.5126437 24.1943746,11.5126437 C25.8586933,11.5126437 27.1977852,10.6028453 27.5730469,10.2522166 C27.8416553,10.0003935 28.1212362,9.74944482 28.401695,9.49543576 C29.6933854,8.33075395 31.0302827,7.12716196 31.6881977,5.67568162 C31.9102825,5.18864876 32.2087362,5.08678282 32.421604,5.08678282 C32.4426713,5.08678282 32.5528359,5.09858702 32.5739032,5.10295895 C32.6138433,5.11214 32.6520279,5.13137649 32.6840678,5.1549849 C32.8583121,5.28832873 33.1036586,5.35478205 33.4170351,5.35478205 C33.669843,5.35478205 33.9617132,5.31281153 34.3066907,5.22449857 C34.3303914,5.21750349 34.3536533,5.21488033 34.3782318,5.21488033 C34.4427505,5.21488033 34.5063914,5.23717717 34.557743,5.27958487 C34.6279674,5.33598275 34.665713,5.42254694 34.6622018,5.51260868 C34.6235784,6.24709271 34.4905909,6.99819006 33.7892245,7.50926854 C33.2700027,7.88918914 32.7797485,8.07455892 32.3052948,8.25249642 C31.7105818,8.47808795 31.1492253,8.6896893 30.537834,9.28121126 L29.9931559,9.80409393 C28.3573658,11.3701188 26.811112,12.8491423 26.5060746,14.6114668 C25.3298157,17.6416506 22.5629736,20.1476402 19.8294882,22.4608277 C19.7873535,22.5146024 19.7561914,22.7047813 19.7443411,22.9413026 L20.0643011,22.6947258 C20.1160916,22.6562529 20.177099,22.636142 20.2385454,22.636142 C20.3109643,22.636142 20.3842611,22.6649967 20.438685,22.7192086 C20.5067149,22.7869735 20.5659667,22.9146339 20.5457772,23.0090675 C20.4479019,23.4716176 20.4255179,23.9682687 20.4013783,24.4942117 C20.3588047,25.4595336 20.3131588,26.4572077 19.7592637,27.2459037 C19.5521017,27.5396973 19.2238026,27.7150116 18.8783862,27.7150116 C18.8318625,27.7150116 18.7849,27.7119513 18.7370596,27.7053934 L15.4856691,27.2459037 C15.4615294,27.2922461 15.8503971,27.8483555 15.1095295,27.7329365 C14.2685921,27.6035274 13.41756,27.2183605 13.41756,27.2183605 L10.483496,29.4646575 L12.5919842,26.512294 C12.5919842,26.512294 11.6307874,25.6335363 11.3749072,25.3117624 Z" id="path-3"></path>
        <path d="M17.8873002,7.78627394 C17.1275598,7.78627394 16.5705924,7.32459826 16.0324978,6.87866153 C15.5036202,6.43928269 15.004149,6.02438666 14.3207776,6.01214525 L13.9665832,6.00995929 C12.7933966,6.00995929 11.8080602,6.11182523 10.853447,6.2119424 C9.99802585,6.30200413 9.18956725,6.38594516 8.32975704,6.38594516 C7.88427089,6.38594516 7.46029097,6.36364833 7.03543325,6.31730588 C5.05115456,6.10089541 3.06029233,5.65014955 0.576542466,4.85839326 C0.487445237,4.83085011 0.418098625,4.75958767 0.391764468,4.67083752 C0.364991409,4.58077578 0.383425318,4.48459335 0.441799365,4.41245653 C1.52369429,3.07420914 2.33698083,1.67082001 2.85751932,0.240324923 C2.88297567,0.168625292 2.93608289,0.110915832 3.0054295,0.0785635596 C3.04317512,0.0623874232 3.08355416,0.0532063729 3.12437211,0.0532063729 C3.15816761,0.0532063729 3.19240201,0.0602014588 3.2248808,0.0720056665 C6.12207692,1.16586224 9.60828034,1.7202228 13.5856158,1.71934842 C14.5011666,1.71934842 15.4579743,1.69093088 16.4301436,1.63322142 C16.4367271,1.63322142 16.4411161,1.63234704 16.4481386,1.63234704 C16.500368,1.63234704 16.5525974,1.64721159 16.5982433,1.67475475 C17.5036994,2.23917075 18.4675295,2.85823586 19.40722,3.66704268 C19.7460528,3.95733874 19.8707011,4.40502425 19.7249855,4.80418134 C19.69119,4.89599185 19.6411551,4.98736516 19.5880478,5.07917566 C19.4677885,5.28990263 19.451988,5.34630051 19.4941227,5.41843733 C19.5296738,5.47745837 19.6056039,5.54391169 19.6846064,5.61298816 C19.8654343,5.76906602 20.1125365,5.9846021 20.0971749,6.34353745 C20.0620627,7.17376672 19.262821,7.43695683 18.7343823,7.6109596 L18.5706716,7.66560871 C18.3393699,7.74517781 18.1085071,7.78627394 17.8873002,7.78627394 Z" id="path-5"></path>
        <path d="M66.7829381,32.8031935 C66.7307087,32.6698496 66.6082548,32.5863458 66.4871177,32.5378174 C64.0099514,31.5348969 61.6618224,30.7138487 59.6981722,29.052953 C60.8243963,29.5098195 62.0024109,29.835091 63.2256324,30.057185 C64.1820012,30.1756643 65.5412826,30.3601597 66.2940006,29.8866798 C66.3756364,29.835091 66.3830978,29.655842 66.2408933,29.6300476 C62.5475279,28.9847509 58.8572348,27.7081477 52.1977655,22.585996 C52.0340548,22.4605216 51.8747332,22.4242346 51.6355313,22.4382248 C47.6779464,22.6782437 42.4532498,22.4906879 38.5334106,20.9028034 C38.5334106,20.9028034 38.8397646,20.1683194 40.1819288,18.8090867 C40.9127016,18.0689192 41.6667363,17.257052 42.3000728,16.7835721 C42.7591649,16.4395014 44.1684812,15.9926902 44.8900371,15.5323261 C45.6137875,15.0706505 53.9766378,9.7119774 53.9766378,9.7119774 C53.9766378,9.7119774 48.2805597,11.6277566 46.2401015,12.3097775 C46.1031639,12.3552455 46.0430342,12.3355718 46.0026552,12.3097775 C45.3034833,11.8515993 44.5727105,11.3942956 43.6615487,11.542504 C42.3628358,11.862092 42.1723521,13.1067801 41.5297987,13.9265167 C40.5308564,15.2000596 38.6185577,16.8500255 38.1204032,17.3033945 C37.3878748,17.9692392 36.053172,18.4344124 34.7680651,18.3045662 C32.0490635,17.8240912 29.7435081,16.3402586 27.5059826,14.7020969 C26.1181725,13.6445273 24.2357192,11.8118148 22.4660639,10.5802424 C21.4557101,9.87811069 20.7148425,9.53622586 19.5644788,9.18778314 C15.3207295,7.90549644 9.48771379,5.06024521 4.53030883,0.32151164 C4.31173533,0.111221867 4.14890246,0.175926413 4.13397978,0.299651996 C4.05541621,0.89029957 4.75371026,1.87879266 5.24176996,2.59578897 C6.10158017,3.71587712 7.32480174,4.69912389 8.32462188,5.51754896 C5.96332585,4.70655617 3.92155091,3.13790814 1.8332523,1.65014079 C1.60282843,1.48488188 1.28901307,1.40268962 1.25082854,1.63658781 C1.17533729,2.10132383 1.45579606,2.65874475 1.80472363,3.06708289 C3.65557593,5.24036867 5.95366999,6.32329542 8.29609321,7.31965799 C5.80663762,7.07570436 3.5656009,6.30318455 1.21132731,5.39994407 C0.957202698,5.30245006 0.560873643,5.1651715 0.418669198,5.31031953 C0.31640489,5.41568302 0.483626784,5.81702607 0.706589309,5.99059165 C2.77601511,7.6012102 5.16188968,8.19797847 7.61447746,8.76632921 C5.5011614,8.99498108 3.29962592,8.78950043 1.32895321,8.26486898 C0.927796223,8.15688234 0.0583301566,7.98637712 0.0583301566,8.22639601 C0.0583301566,8.61986959 0.598180365,8.94120636 0.973442095,9.12001824 C2.8927632,10.0324398 4.93234362,10.2064425 7.05048761,10.4202299 C6.08051284,10.5968558 5.07235355,10.6856059 4.02776534,10.6856059 C2.94060358,10.7000333 1.84817499,10.5526993 0.805342396,10.5907351 C0.625831229,10.5959814 0.436664205,10.7135863 0.706589309,10.8635434 C2.5398855,11.8800169 4.72386488,11.7637236 6.90257743,11.8083172 C6.02828343,12.1257193 5.07674258,12.2503192 4.11598477,12.3687985 C3.32069324,12.4676041 2.48546158,12.263435 1.74459398,12.4571115 C1.61116758,12.4929613 1.65330223,12.7163668 1.92278844,12.841404 C3.37731168,13.5159926 4.97579498,13.3725933 6.51722094,13.3441758 L6.45709128,13.4027596 C5.83560519,13.9562458 5.07674258,13.8679329 4.205082,14.140304 C4.07648353,14.1805258 4.10106208,14.3558401 4.23492738,14.4358464 C5.44673748,15.1659585 6.7463281,14.0078346 7.941021,14.6133467 C9.24631736,15.2752567 10.7232246,16.2773028 12.803623,18.2582237 C15.7473428,21.0584441 19.4205187,24.3955373 23.8595797,26.7200918 C22.7605676,27.6202719 21.7765479,28.2013013 20.5779049,28.9432176 C20.1166183,29.2273929 20.0569275,29.8307191 20.3641593,30.2346853 C20.9176155,30.9621743 22.3475602,32.7441724 22.3475602,32.7441724 C22.5990514,32.5522447 23.0059141,32.2186666 22.7921686,31.947607 C22.4256849,31.4819966 21.3095555,30.057185 21.3095555,30.057185 C21.2059745,29.8875542 21.235381,29.628736 21.3990917,29.4958294 C22.8285975,28.5217636 24.2804873,27.568246 25.6669806,26.4831333 C27.6380922,24.7999407 29.8260218,22.8146479 29.69874,20.2526976 C29.2690543,21.4488573 28.513703,22.5269749 27.4761372,23.4424568 C26.9121473,23.0363046 26.3643969,22.5999861 25.8162075,22.1719743 C22.9550014,19.9287377 21.0356803,17.0419531 19.0259453,14.3182415 C17.5073422,12.1401466 14.7804403,12.6276167 12.7724609,11.5123377 C12.1127903,11.1652065 11.4825261,10.4941154 11.4983266,9.7119774 C11.5049102,9.33599152 11.5492393,8.94251794 11.9126507,8.73747448 C12.2677229,8.5888289 12.5047303,8.88524567 12.8615581,8.82491305 C13.2021466,8.76632921 13.2425256,8.35143317 13.4843609,8.17611883 C14.1242809,7.7113828 14.8985051,8.3680465 15.5292082,8.64872432 C17.5450879,9.88117104 19.9709026,9.78936053 22.0223334,11.3514507 C23.5865823,12.5419269 25.5208261,14.2684015 26.9713992,15.427837 C28.1002567,16.3297659 31.4679564,18.5441479 34.1026888,19.1129358 C36.5921444,19.6524318 38.4877647,18.1261915 38.7396948,17.8909817 C40.2543477,16.4757884 42.0898384,15.0527256 42.9198033,13.2256965 C43.015484,13.013658 43.1875339,12.7452216 43.4833542,12.8116749 C43.9942368,13.2029625 44.8022565,13.0700559 45.3504459,12.9301541 C45.3131392,13.639281 45.1889297,14.2793314 44.5937778,14.7130267 C43.4679926,15.5366981 42.4637834,15.3967963 41.3125419,16.5116382 C39.4401834,18.3220539 37.5546578,19.943165 37.1995856,21.9957856 C36.0360548,24.9713203 33.1761654,27.5131597 30.6186799,29.6781388 C30.3584106,29.896298 30.4404854,30.9425006 30.4404854,30.9425006 L31.2103206,30.3522902 L31.2414827,30.3820193 C30.9504902,31.7403776 31.2884452,33.3929666 30.4988594,34.5161151 C30.3268096,34.7587572 30.0441563,34.8986589 29.7487749,34.858 C28.6818027,34.7102288 27.4432195,34.5296681 26.4965066,34.3976359 C26.1796189,34.3530422 26.1265117,34.8698042 26.0821825,35.1653466 C27.3115487,35.356837 28.5624211,35.5601317 29.7241963,35.7179584 C30.9228394,35.8805941 31.6659015,34.472833 31.83049,33.3064025 C31.9687443,32.3292764 31.9090535,31.2695209 32.0749587,30.3024502 C34.6767734,31.2397917 37.458977,31.8601684 40.2521532,32.3891718 C44.0433939,33.11054 48.7427242,31.997447 51.8716609,34.1309482 C52.880259,34.8190898 53.2980943,36.0817028 53.7391915,36.7309342 C53.9029021,36.9700787 54.1802886,37.3797285 54.4998097,37.2621236 C54.5691563,37.2376408 54.5880291,37.1047342 54.5401887,36.9967475 C54.2386626,36.3099175 53.8506727,35.5631921 54.006922,34.7513249 C54.006922,34.7513249 54.7337448,36.0550341 55.0155202,36.4642466 C55.5277196,37.2166555 56.3748016,38.4150012 57.1788712,38.4150012 C57.3048362,38.4150012 57.3171255,38.2523654 57.2666517,38.1771683 C56.3001882,36.7029539 55.422383,35.2982532 55.1327072,33.6596543 C55.9560885,34.9874091 56.7329461,36.3466417 57.9495842,37.4986449 C58.3792698,37.9056715 58.8370452,38.3546686 59.3132546,38.3179444 C59.3975239,38.3113865 59.4910101,38.2003395 59.3619728,38.0206532 C58.0167363,36.1350404 56.9124573,34.6791881 56.2299638,32.8031935 C57.3206367,34.280031 58.6193496,35.8784081 60.1423416,36.9657068 C60.6225011,37.3097776 61.226431,37.6669642 61.7355581,37.5174442 C61.8641565,37.4794084 61.8566952,37.3185215 61.8022713,37.2621236 C60.0334938,35.4289739 58.2677886,33.5783364 57.3267814,31.4448352 C58.6680677,32.7734643 60.0580723,34.0260219 61.5358574,34.9585543 C62.2806751,35.4276623 63.4551785,35.950545 64.0196072,35.7052798 C64.1214326,35.6606861 64.1179214,35.5102917 64.0555973,35.4604518 C62.0362064,33.8279736 59.8605661,32.2125459 58.1567462,30.1157689 C58.779549,30.4633372 59.4067408,30.9621743 60.0532444,31.3276675 C61.9800268,32.4114686 64.2794376,33.5263105 66.3988983,33.2172151 C66.5722648,33.1914207 66.8623794,33.0051766 66.7829381,32.8031935 Z M53.5899646,28.8199292 C51.821626,29.4324364 51.1742446,27.1826419 49.4379459,27.1524756 C46.4696476,27.099138 44.642496,27.7273842 42.1789357,27.4589478 C39.93746,27.2136826 37.8364333,26.668503 35.7757855,26.0118393 C36.8203737,24.7194972 37.6801839,23.2872533 38.2362735,21.7597014 C42.222387,23.2636449 46.8585153,23.6177712 51.5596011,23.3379677 C52.537915,23.9465402 53.4433711,24.5363134 54.3330267,25.3027125 C54.5713508,25.5073188 54.6806375,25.8264696 54.5700341,26.1294442 C54.471281,26.4035642 54.1723883,26.6663171 54.3619943,26.9859051 C54.5199992,27.2499696 54.9409068,27.3986151 54.9255452,27.7536158 C54.8952609,28.4605566 54.1245479,28.635871 53.5899646,28.8199292 Z" id="path-7"></path>
        <path d="M8.38887722,1.89418185 C7.13712698,4.03424097 5.75063364,6.12358572 4.14995583,8.12418031 L4.17980121,8.15390943 C6.39625938,6.28665866 8.53020386,4.23403811 10.7014551,2.27672561 L10.7313004,3.51747899 L6.93698739,7.03207251 L0.0892289002,12.9953833 L0.0892289002,11.0188343 C3.60176647,7.73289269 6.21850382,4.01981361 8.24096704,0.0925100123 L8.38887722,1.89418185 Z" id="path-9"></path>
        <path d="M14.0942161,3.769783 L14.2653881,3.769783 C14.4365601,5.46784013 14.4365601,6.7335135 14.6059766,8.04727809 L14.9434927,12.3925381 L10.5233045,12.3925381 L12.3952241,8.0586451 C12.9061068,6.80477594 13.4139171,5.48008153 14.0942161,3.769783 Z M10.3556437,0.277049125 L0.148524643,21.0817465 L6.95414848,21.0817465 L8.82606811,16.5957104 L15.2840811,16.5957104 L15.6255473,21.0817465 L22.4280988,21.0817465 L19.2004091,0.277049125 L10.3556437,0.277049125 Z" id="path-11"></path>
        <path d="M2.68788346,0.277136563 L0.503904084,12.5648795 C-0.688155399,19.2679207 2.34422272,21.490172 9.48648486,21.490172 C16.9719688,21.490172 20.545075,19.1240842 21.5655235,12.6020409 L23.6033484,0.277136563 L17.3143129,0.277136563 L15.2694656,12.8722261 C14.7603386,15.8871082 13.4028128,17.332905 10.3436617,17.332905 C6.94084974,17.332905 6.42821149,15.8036043 6.94084974,12.8722261 L8.98043016,0.277136563 L2.68788346,0.277136563 Z" id="path-13"></path>
        <path d="M3.47632811,0.277136563 L0.0726383817,21.0818339 L6.02854677,21.0818339 C7.04943424,14.0412798 7.89695518,9.32047118 8.06812719,6.90978967 L8.24105482,6.90978967 C8.75193746,9.29117925 9.94004682,14.0281641 12.1507993,21.0818339 L20.9960035,21.0818339 L24.5647206,0.277136563 L18.6158347,0.277136563 C17.424653,7.29495659 16.7434761,12.0210116 16.4020099,14.4487436 L16.2308379,14.4487436 C15.8893717,12.0599217 14.5340404,7.29845413 12.4922655,0.277136563 L3.47632811,0.277136563 Z" id="path-15"></path>
        <path d="M8.50053404,0.277136563 L5.42470457,18.1093595 C5.04988174,19.9564994 4.51924849,21.1391062 4.0509394,21.7450555 C3.70771756,22.2067312 3.15470028,22.5665409 2.61485007,22.7256791 C1.44693023,23.0701871 0.384785917,23.0172867 0.384785917,23.0172867 L0.862750857,26.0855063 C6.35956712,26.9581433 10.7806331,22.6684068 11.8107375,17.6765386 L14.7930807,0.277136563 L8.50053404,0.277136563 Z" id="path-17"></path>
    </defs>
    <g id="Page-1" stroke="none" stroke-width="1" fill="none" fill-rule="evenodd">
        <g id="logo-new-top" transform="translate(-20.000000, -32.000000)">
            <g transform="translate(20.000000, 32.000000)">
                <g id="BG">
                    <path d="M0,0 L0,132.036281 C21.612,132.041305 44.667,131.886568 55.673,131.37614 C95.724,129.517294 130.41,125.093243 159.874,118.105995 L159.874,0 L0,0" id="Fill-1" fill="#FFFFFE"></path>
                    <path d="M159.874,117.544 C130.41,124.498 95.724,128.901 55.673,130.751 C44.667,131.259 21.612,131.413 0,131.408 L0,135.597 C1.058,135.602 18.202,135.609 18.202,135.609 C33.306,135.56 47.156,135.357 54.957,134.997 C95.204,133.139 130.163,128.812 159.874,121.734 L159.874,117.544" id="Fill-3" fill="#D8232E"></path>
                </g>
                <g id="logo-bg-white" transform="translate(23.000000, 39.609000)">
                    <g id="Bogen" transform="translate(0.000000, 21.859644)">
                        <mask id="mask-2" fill="white">
                            <use xlink:href="#path-1"></use>
                        </mask>
                        <g id="Clip-2"></g>
                        <polygon id="Fill-1" fill="#B0B2B3" mask="url(#mask-2)" points="-1.79871067 -1.93632724 104.169935 -1.93632724 104.169935 52.1195114 -1.79871067 52.1195114"></polygon>
                    </g>
                    <g id="Storch" transform="translate(9.000000, 0.000000)">
                        <g id="Group-6" transform="translate(11.628423, 7.432279)">
                            <mask id="mask-4" fill="white">
                                <use xlink:href="#path-3"></use>
                            </mask>
                            <g id="Clip-5"></g>
                            <polygon id="Fill-4" fill="#FEFEFE" mask="url(#mask-4)" points="-1.95355551 -1.88688073 36.8569343 -1.88688073 36.8569343 31.6506219 -1.95355551 31.6506219"></polygon>
                        </g>
                        <g id="Group-9" transform="translate(35.768066, 21.422451)">
                            <mask id="mask-6" fill="white">
                                <use xlink:href="#path-5"></use>
                            </mask>
                            <g id="Clip-8"></g>
                            <polygon id="Fill-7" fill="#FEFEFE" mask="url(#mask-6)" points="-1.81477889 -2.132758 22.2923902 -2.132758 22.2923902 9.97223831 -1.81477889 9.97223831"></polygon>
                        </g>
                        <g id="Group-12" transform="translate(0.655857, 0.000000)">
                            <mask id="mask-8" fill="white">
                                <use xlink:href="#path-7"></use>
                            </mask>
                            <g id="Clip-11"></g>
                            <polygon id="Fill-10" fill="#1A171B" mask="url(#mask-8)" points="-2.13618288 -2.00116295 68.9909254 -2.00116295 68.9909254 40.6009656 -2.13618288 40.6009656"></polygon>
                        </g>
                        <g id="Group-15" transform="translate(19.089767, 27.543151)">
                            <mask id="mask-10" fill="white">
                                <use xlink:href="#path-9"></use>
                            </mask>
                            <g id="Clip-14"></g>
                            <polygon id="Fill-13" fill="#1A171B" mask="url(#mask-10)" points="-2.10528414 -2.09345436 12.9258135 -2.09345436 12.9258135 15.1813477 -2.10528414 15.1813477"></polygon>
                        </g>
                    </g>
                    <g id="Schrift" transform="translate(19.000000, 50.000000)">
                        <g id="Group-18" transform="translate(25.329163, 0.714373)">
                            <mask id="mask-12" fill="white">
                                <use xlink:href="#path-11"></use>
                            </mask>
                            <g id="Clip-17"></g>
                            <polygon id="Fill-16" fill="#D9222E" mask="url(#mask-12)" points="-2.0459884 -1.90891525 24.6226119 -1.90891525 24.6226119 23.2677108 -2.0459884 23.2677108"></polygon>
                        </g>
                        <g id="Group-21" transform="translate(65.269301, 0.714373)">
                            <mask id="mask-14" fill="white">
                                <use xlink:href="#path-13"></use>
                            </mask>
                            <g id="Clip-20"></g>
                            <polygon id="Fill-19" fill="#D9222E" mask="url(#mask-14)" points="-1.94319741 -1.90882781 25.7978614 -1.90882781 25.7978614 23.6761364 -1.94319741 23.6761364"></polygon>
                        </g>
                        <g id="Group-24" transform="translate(0.311715, 0.714373)">
                            <mask id="mask-16" fill="white">
                                <use xlink:href="#path-15"></use>
                            </mask>
                            <g id="Clip-23"></g>
                            <polygon id="Fill-22" fill="#D9222E" mask="url(#mask-16)" points="-2.12187466 -1.90882781 26.7592337 -1.90882781 26.7592337 23.2677983 -2.12187466 23.2677983"></polygon>
                        </g>
                        <g id="Group-27" transform="translate(47.713196, 0.714373)">
                            <mask id="mask-18" fill="white">
                                <use xlink:href="#path-17"></use>
                            </mask>
                            <use id="Clip-26" fill="#D9222E" xlink:href="#path-17"></use>
                            <polygon id="Fill-25" fill="#D9222E" mask="url(#mask-18)" points="-1.80972712 -1.90882781 16.9875938 -1.90882781 16.9875938 28.3849546 -1.80972712 28.3849546"></polygon>
                        </g>
                    </g>
                </g>
            </g>
        </g>
    </g>
</svg>