<svg xmlns="http://www.w3.org/2000/svg" width="160" height="136" viewBox="0 0 160 136"><title>logo-new-top</title><g fill="none" fill-rule="evenodd"><path d="M0 0v132.036c21.612.005 44.667-.15 55.673-.66 40.051-1.859 74.737-6.283 104.201-13.27V0H0" fill="#fffffe"/><path d="M159.874 117.544c-29.464 6.954-64.15 11.357-104.201 13.207-11.006.508-34.061.662-55.673.657v4.189c1.058.005 18.202.012 18.202.012 15.104-.049 28.954-.252 36.755-.612 40.247-1.858 75.206-6.185 104.917-13.263v-4.19" fill="#d8232e"/><path fill="#b0b2b3" d="M48.435 76.177c-10.888 9.575-16.355 21.154-18.943 35.226h-6.096c2.732-14.82 9.998-28.533 21.51-38.46l3.53 3.234zm76.54 9.193l-.438.131c-6.715-10.402-15.707-17.437-27.56-21.206l1.49-2.576c11.805 4.432 20.597 12.676 26.508 23.65z"/><path fill="#fefefe" d="M55.003 72.353c-.272-.343.218-.606.22-.632l-1.482-1.88c-.2-.325-.132-.74.133-.956l.748-.507c1.17-.793 2.381-1.612 3.525-2.509 1.573-1.342 3.026-2.693 3.632-4.252a8.638 8.638 0 0 1-1.459 1.646.288.288 0 0 1-.355.018c-.48-.345-.946-.711-1.411-1.075l-.258-.202c-2.526-1.98-4.33-4.46-6.073-6.857l-.77-1.052c-.89-1.278-2.219-1.577-3.625-1.894-.86-.195-1.75-.394-2.539-.832-.661-.35-1.438-1.1-1.42-2.054.006-.295.017-.907.559-1.215a.842.842 0 0 1 .345-.08c.157 0 .288.045.404.082a.78.78 0 0 0 .244.057c.114-.016.16-.081.247-.23.075-.125.16-.268.304-.373a1.11 1.11 0 0 1 .665-.216c.439 0 .87.237 1.25.445.142.079.281.155.413.214.908.552 1.858.827 2.863 1.117 1.238.359 2.517.728 3.687 1.619.924.704 1.965 1.582 2.973 2.433.703.595 1.383 1.17 1.982 1.647 1.136.908 4.48 3.083 7.014 3.631.331.07.668.108 1.003.108 1.665 0 3.004-.91 3.379-1.26.269-.253.548-.504.829-.758 1.291-1.164 2.628-2.368 3.286-3.82.222-.486.52-.588.734-.588a1.8 1.8 0 0 1 .152.016.31.31 0 0 1 .11.052c.174.133.42.2.733.2.253 0 .545-.042.89-.13a.282.282 0 0 1 .251.055c.07.056.108.143.104.233-.038.734-.171 1.485-.873 1.996-.519.38-1.01.566-1.484.743-.594.226-1.156.438-1.767 1.03l-.545.522c-1.636 1.566-3.182 3.045-3.487 4.807-1.176 3.03-3.943 5.537-6.677 7.85-.042.054-.073.244-.085.48l.32-.246a.285.285 0 0 1 .374.024c.069.068.128.196.108.29-.098.463-.12.96-.145 1.485-.042.966-.088 1.963-.642 2.752a1.084 1.084 0 0 1-1.022.46l-3.251-.46c-.024.046.364.602-.376.487-.841-.13-1.692-.515-1.692-.515l-2.935 2.247 2.109-2.953s-.961-.878-1.217-1.2z"/><path fill="#fefefe" d="M85.655 68.817c-.76 0-1.316-.461-1.855-.907-.528-.44-1.028-.855-1.711-.867l-.354-.002c-1.174 0-2.159.102-3.114.202-.855.09-1.663.174-2.523.174-.446 0-.87-.022-1.295-.069-1.984-.216-3.975-.667-6.458-1.459a.282.282 0 0 1-.135-.446c1.082-1.338 1.895-2.741 2.416-4.172a.283.283 0 0 1 .367-.168c2.897 1.094 6.383 1.648 10.36 1.647.916 0 1.873-.028 2.845-.086h.018c.052 0 .105.014.15.042.906.564 1.87 1.183 2.81 1.992.338.29.463.738.317 1.137a1.822 1.822 0 0 1-.137.275c-.12.21-.136.267-.094.34.036.058.112.125.19.194.181.156.429.372.413.73-.035.83-.834 1.094-1.363 1.268l-.163.055c-.232.08-.462.12-.684.12z"/><path fill="#1a171b" d="M99.439 72.412a.503.503 0 0 0-.296-.265c-2.477-1.003-4.825-1.824-6.789-3.485 1.126.457 2.304.782 3.528 1.004.956.119 2.315.303 3.068-.17.082-.052.09-.231-.053-.257-3.693-.645-7.384-1.922-14.043-7.044-.164-.125-.323-.162-.562-.148-3.958.24-9.183.053-13.103-1.535 0 0 .307-.735 1.649-2.094.73-.74 1.485-1.552 2.118-2.025.46-.344 1.868-.791 2.59-1.252.724-.461 9.087-5.82 9.087-5.82s-5.696 1.916-7.737 2.598c-.137.045-.197.026-.237 0-.7-.458-1.43-.916-2.341-.767-1.3.32-1.49 1.564-2.132 2.384-1 1.273-2.911 2.923-3.41 3.376-.732.666-2.067 1.131-3.352 1.002-2.719-.48-5.024-1.965-7.262-3.603-1.388-1.057-3.27-2.89-5.04-4.122-1.01-.702-1.751-1.044-2.902-1.392-4.243-1.283-10.076-4.128-15.034-8.866-.218-.21-.38-.146-.396-.022-.079.59.62 1.579 1.108 2.296.86 1.12 2.083 2.103 3.083 2.922-2.362-.811-4.403-2.38-6.492-3.868-.23-.165-.544-.247-.582-.013-.076.464.205 1.022.554 1.43 1.85 2.173 4.149 3.256 6.491 4.253-2.49-.244-4.73-1.017-7.085-1.92-.254-.098-.65-.235-.792-.09-.103.106.065.507.288.68 2.069 1.611 4.455 2.208 6.907 2.776-2.113.229-4.314.024-6.285-.501-.401-.108-1.27-.279-1.27-.039 0 .394.54.715.914.894 1.92.912 3.96 1.086 6.077 1.3a16.85 16.85 0 0 1-3.022.266c-1.087.014-2.18-.133-3.223-.095-.18.005-.368.123-.098.273 1.833 1.016 4.017.9 6.196.944-.875.318-1.826.442-2.787.56-.795.1-1.63-.105-2.371.09-.134.035-.092.258.178.383 1.454.675 3.053.532 4.594.503l-.06.059c-.621.553-1.38.465-2.252.737-.129.04-.104.216.03.296 1.212.73 2.511-.428 3.706.177 1.305.662 2.782 1.664 4.863 3.645 2.943 2.8 6.617 6.138 11.056 8.462-1.1.9-2.083 1.481-3.282 2.223-.461.284-.521.888-.214 1.292.554.727 1.984 2.51 1.984 2.51.251-.193.658-.526.444-.797l-1.482-1.89a.45.45 0 0 1 .09-.562c1.429-.974 2.88-1.928 4.267-3.013 1.971-1.683 4.159-3.668 4.032-6.23-.43 1.196-1.185 2.274-2.223 3.19-.564-.407-1.112-.843-1.66-1.271-2.861-2.243-4.78-5.13-6.79-7.854-1.519-2.178-4.246-1.69-6.254-2.806-.66-.347-1.29-1.018-1.274-1.8.007-.376.051-.77.415-.975.355-.148.592.148.949.088.34-.059.38-.474.622-.649.64-.465 1.415.192 2.045.473 2.016 1.232 4.442 1.14 6.493 2.702 1.565 1.19 3.499 2.917 4.95 4.077 1.128.902 4.496 3.116 7.13 3.685 2.49.54 4.386-.987 4.638-1.222 1.514-1.415 3.35-2.838 4.18-4.665.095-.212.268-.48.563-.414.511.391 1.32.258 1.867.118-.037.71-.161 1.35-.756 1.783-1.126.824-2.13.684-3.281 1.799-1.873 1.81-3.758 3.431-4.113 5.484-1.164 2.975-4.024 5.517-6.581 7.682-.26.218-.179 1.265-.179 1.265l.77-.59.031.029c-.29 1.358.047 3.011-.742 4.134a.791.791 0 0 1-.75.342c-1.067-.148-2.306-.328-3.252-.46-.317-.045-.37.472-.415.767 1.23.192 2.48.395 3.642.553 1.199.163 1.942-1.245 2.106-2.412.139-.977.08-2.036.245-3.004 2.602.938 5.384 1.558 8.177 2.087 3.791.722 8.49-.392 11.62 1.742 1.008.688 1.426 1.95 1.867 2.6.164.24.441.649.76.531.07-.024.089-.157.041-.265-.301-.687-.69-1.434-.533-2.246 0 0 .727 1.304 1.009 1.713.512.753 1.359 1.951 2.163 1.951.126 0 .138-.163.088-.238-.967-1.474-1.845-2.879-2.134-4.517.823 1.327 1.6 2.687 2.817 3.839.43.407.887.856 1.363.819.085-.007.178-.118.049-.297-1.345-1.886-2.45-3.342-3.132-5.218 1.09 1.477 2.39 3.075 3.912 4.163.48.344 1.084.701 1.594.551.128-.038.12-.198.066-.255-1.769-1.833-3.534-3.684-4.475-5.817 1.341 1.328 2.731 2.581 4.209 3.514.745.469 1.92.992 2.484.746.101-.044.098-.195.036-.245-2.02-1.632-4.195-3.247-5.9-5.344.624.347 1.25.846 1.897 1.212 1.927 1.083 4.226 2.198 6.346 1.89.173-.027.463-.213.384-.415zm-13.193-3.983c-1.768.612-2.416-1.637-4.152-1.668-2.968-.053-4.796.575-7.26.307-2.24-.245-4.342-.79-6.402-1.447 1.044-1.293 1.904-2.725 2.46-4.252 3.986 1.504 8.623 1.858 13.324 1.578.978.609 1.883 1.198 2.773 1.965.238.204.348.523.237.826-.099.275-.398.537-.208.857.158.264.579.413.564.768-.03.707-.801.882-1.336 1.066z"/><path fill="#1a171b" d="M59.479 69.046c-1.252 2.14-2.638 4.23-4.239 6.23l.03.03c2.216-1.867 4.35-3.92 6.521-5.877l.03 1.24-3.794 3.515-6.848 5.963v-1.975c3.513-3.286 6.13-7 8.152-10.926l.148 1.801z"/><g fill="#d9222e"><path d="M81.424 94.093h.171c.172 1.698.172 2.964.341 4.277l.337 4.346h-4.42l1.872-4.334c.511-1.254 1.019-2.579 1.7-4.29zM77.686 90.6l-10.207 20.805h6.805l1.872-4.486h6.458l.342 4.486h6.802L86.53 90.6zM109.958 90.6l-2.184 12.288c-1.192 6.703 1.84 8.925 8.982 8.925 7.486 0 11.06-2.366 12.08-8.888l2.037-12.325h-6.29l-2.043 12.595c-.51 3.015-1.866 4.46-4.925 4.46-3.403 0-3.916-1.528-3.403-4.46L116.25 90.6h-6.293zM45.788 90.6l-3.403 20.805h5.956c1.02-7.04 1.868-11.762 2.04-14.172h.172c.51 2.381 1.699 7.118 3.91 14.172h8.845L66.877 90.6h-5.95a492.052 492.052 0 0 0-2.213 14.172h-.171c-.342-2.39-1.697-7.15-3.739-14.172zM98.213 90.6l-3.074 17.834c-.375 1.847-.905 3.028-1.373 3.634-.343.462-.898.823-1.438.98-1.168.346-2.228.294-2.228.294l.476 3.068c5.497.872 9.92-3.418 10.95-8.41l2.98-17.398h-6.291z"/></g></g></svg>